<svg width="48" height="48" viewBox="0 0 48 48" fill="none" xmlns="http://www.w3.org/2000/svg">
<rect width="48" height="48" rx="24" fill="#8F72DB"/>
<path fill-rule="evenodd" clip-rule="evenodd" d="M28.1732 15.0414L27.7913 15.4194C32.0744 16.6591 34.1467 18.595 34.1467 18.595C31.3864 17.2149 28.8988 16.5248 26.4112 16.2459C24.6136 15.9669 22.8161 16.1136 21.2975 16.2459H20.8843C19.9132 16.2459 17.8471 16.6591 15.0785 17.7645C14.1136 18.1839 13.5599 18.4587 13.5599 18.4587C13.5599 18.4587 15.6302 16.3884 20.1921 15.2831L19.9132 15.0041C19.9132 15.0041 16.4587 14.8719 12.7293 17.6281C12.7293 17.6281 9 24.124 9 32.1322C9 32.1322 11.0661 35.7273 16.7335 35.8636C16.7335 35.8636 17.5599 34.7624 18.3967 33.7934C15.2149 32.8264 13.9752 30.8926 13.9752 30.8926C13.9752 30.8926 14.2521 31.0289 14.6674 31.3058H14.7913C14.8533 31.3058 14.8822 31.3368 14.9153 31.3678V31.3802C14.9483 31.4132 14.9773 31.4421 15.0393 31.4421C15.7211 31.7231 16.4029 32 16.9607 32.2686C17.9236 32.686 19.1612 33.1012 20.6798 33.376C22.6012 33.655 24.8037 33.7893 27.312 33.376L27.3922 33.358C28.6051 33.0852 29.8181 32.8124 31.031 32.2707C31.8368 31.8574 32.8285 31.4442 33.9174 30.7479C33.9174 30.7479 32.6777 32.6818 29.3616 33.6488C30.0434 34.6116 31.0041 35.7149 31.0041 35.7149C36.6736 35.5909 38.876 31.9959 39 32.1488C39 24.1529 35.25 17.6446 35.25 17.6446C31.9107 15.1652 28.7835 15.0438 28.1732 15.0414ZM31.2417 26.8822C31.2417 25.3636 30.0702 24.124 28.6178 24.124V24.1302C27.1777 24.1302 25.9979 25.3657 25.9938 26.8946C25.9938 28.4112 27.1715 29.6508 28.6178 29.6508C30.064 29.6508 31.2417 28.4112 31.2417 26.8822ZM21.8471 26.8822C21.8471 25.3636 20.6777 24.124 19.2314 24.124L19.2231 24.1302C17.7769 24.1302 16.5992 25.3657 16.5992 26.8946C16.5992 28.4112 17.7769 29.6508 19.2231 29.6508C20.6694 29.6508 21.8471 28.4112 21.8471 26.8822Z" fill="white"/>
</svg>
