<svg width="48" height="48" viewBox="0 0 48 48" fill="none" xmlns="http://www.w3.org/2000/svg">
<rect width="48" height="48" rx="5" fill="#8F72DB"/>
<path d="M35.7842 8C37.8346 8 39.4883 9.65812 39.586 11.6094V43L35.6821 39.6852L33.5383 37.734L31.1992 35.6952L32.1762 38.9108H11.7042C9.65958 38.9108 8 37.3577 8 35.3V11.6167C8 9.66542 9.6625 8.00438 11.7115 8.00438H35.774L35.7842 8ZM26.8621 16.2877H26.8183L26.5237 16.5794C29.5469 17.4544 31.0096 18.8208 31.0096 18.8208C29.0612 17.8467 27.3054 17.3596 25.5496 17.1627C24.2808 16.9658 23.0121 17.0694 21.9402 17.1627H21.6485C20.9631 17.1627 19.5048 17.4544 17.5506 18.2346C16.8696 18.5306 16.4787 18.7246 16.4787 18.7246C16.4787 18.7246 17.94 17.2633 21.16 16.4831L20.9631 16.2863C20.9631 16.2863 18.5248 16.1929 15.8925 18.1383C15.8925 18.1383 13.2602 22.7233 13.2602 28.3758C13.2602 28.3758 14.7185 30.9133 18.7187 31.0096C18.7187 31.0096 19.3021 30.2323 19.8927 29.5483C17.6469 28.8658 16.7719 27.5008 16.7719 27.5008C16.7719 27.5008 16.9673 27.5971 17.2604 27.7925H17.3479C17.3917 27.7925 17.4121 27.8144 17.4354 27.8363V27.845C17.4587 27.8683 17.4792 27.8887 17.5229 27.8887C18.0042 28.0871 18.4854 28.2825 18.8792 28.4721C19.5587 28.7667 20.4323 29.0598 21.5042 29.2538C22.8604 29.4506 24.415 29.5454 26.1854 29.2538C27.0604 29.0569 27.9354 28.8644 28.8104 28.4735C29.3792 28.1819 30.0792 27.8902 30.8477 27.3988C30.8477 27.3988 29.9727 28.7638 27.6321 29.4463C28.1133 30.1258 28.7915 30.9046 28.7915 30.9046C32.7931 30.8171 34.3477 28.2796 34.4352 28.3875C34.4352 22.7437 31.7883 18.15 31.7883 18.15C29.404 16.3796 27.1727 16.3125 26.779 16.3125L26.8606 16.2833L26.8621 16.2877ZM27.1071 22.7233C28.1323 22.7233 28.9592 23.5983 28.9592 24.6702C28.9592 25.7494 28.1279 26.6244 27.1071 26.6244C26.0862 26.6244 25.255 25.7494 25.255 24.679C25.2579 23.5998 26.0906 22.7277 27.1071 22.7277V22.7233ZM20.4819 22.7233C21.5027 22.7233 22.3281 23.5983 22.3281 24.6702C22.3281 25.7494 21.4969 26.6244 20.476 26.6244C19.4552 26.6244 18.624 25.7494 18.624 24.679C18.624 23.5998 19.4552 22.7277 20.476 22.7277L20.4819 22.7233Z" fill="white"/>
</svg>
