<svg width="48" height="48" viewBox="0 0 48 48" fill="none" xmlns="http://www.w3.org/2000/svg">
<path d="M0 24C0 10.7452 10.7452 0 24 0H43.4717C45.9726 0 48 2.02739 48 4.5283V43.4717C48 45.9726 45.9726 48 43.4717 48H24C10.7452 48 0 37.2548 0 24V24Z" fill="#8F72DB"/>
<path d="M42 24.6065C42 14.9421 34.1644 7.10646 24.5 7.10646C14.8356 7.10646 7 14.9421 7 24.6065C7 33.3419 13.3992 40.581 21.7656 41.8935V29.6654H17.3221V24.605H21.7656V20.7521C21.7656 16.3669 24.379 13.9431 28.3763 13.9431C30.2896 13.9431 32.2933 14.2858 32.2933 14.2858V18.5923H30.0854C27.911 18.5923 27.2329 19.9413 27.2329 21.3252V24.6065H32.0863L31.3104 29.6669H27.2329V41.895C35.6008 40.581 42 33.3404 42 24.6065Z" fill="white"/>
</svg>
