<svg width="48" height="48" viewBox="0 0 48 48" fill="none" xmlns="http://www.w3.org/2000/svg">
<rect width="48" height="48" rx="24" fill="#8F72DB"/>
<path d="M16.2688 37.956H10.4581V19.285H16.2688V37.956Z" fill="white"/>
<path d="M13.3635 16.7302C11.4983 16.7302 10 15.2204 10 13.3635C10 11.5081 11.4999 10 13.3635 10C15.2221 10 16.7285 11.5081 16.7285 13.3635C16.7285 15.2204 15.2204 16.7302 13.3635 16.7302Z" fill="white"/>
<path d="M37.9984 37.956H32.204V28.8764C32.204 26.7113 32.16 23.925 29.1846 23.925C26.1635 23.925 25.7021 26.2809 25.7021 28.7167V37.956H19.9078V19.285H25.4739V21.83H25.5489C26.3265 20.3626 28.2178 18.8138 31.0432 18.8138C36.9142 18.8138 38 22.6778 38 27.7075V37.956H37.9984Z" fill="white"/>
</svg>
