<svg width="48" height="48" viewBox="0 0 48 48" fill="none" xmlns="http://www.w3.org/2000/svg">
<rect width="48" height="48" rx="5" fill="#8F72DB"/>
<path d="M36.8185 36.8258H31.6356V28.7044C31.6356 26.7677 31.5963 24.2754 28.9348 24.2754C26.2325 24.2754 25.8198 26.3827 25.8198 28.5615V36.8258H20.6369V20.125H25.6156V22.4015H25.6827C26.3783 21.089 28.07 19.7035 30.5973 19.7035C35.8488 19.7035 36.82 23.1598 36.82 27.6588V36.8258H36.8185ZM14.7831 17.8398C13.1148 17.8398 11.7746 16.4894 11.7746 14.8283C11.7746 13.1688 13.1163 11.8198 14.7831 11.8198C16.4456 11.8198 17.7931 13.1688 17.7931 14.8283C17.7931 16.4894 16.4442 17.8398 14.7831 17.8398ZM17.3819 36.8258H12.1844V20.125H17.3819V36.8258ZM39.4115 7H9.58271C8.155 7 7 8.12875 7 9.52146V39.4785C7 40.8727 8.155 42 9.58271 42H39.4071C40.8333 42 42 40.8727 42 39.4785V9.52146C42 8.12875 40.8333 7 39.4071 7H39.4115Z" fill="white"/>
</svg>
