<svg width="48" height="48" viewBox="0 0 48 48" fill="none" xmlns="http://www.w3.org/2000/svg">
<path d="M0 4.5283C0 2.02739 2.02739 0 4.5283 0H24C37.2548 0 48 10.7452 48 24V24C48 37.2548 37.2548 48 24 48H4.5283C2.02739 48 0 45.9726 0 43.4717V4.5283Z" fill="#8F72DB"/>
<path d="M23.5 7C13.875 7 6 14.875 6 24.5C6 34.125 13.875 42 23.5 42C33.125 42 41 34.125 41 24.5C41 14.875 33.2125 7 23.5 7ZM31.5515 32.2875C31.2015 32.811 30.589 32.9875 30.0625 32.6375C25.95 30.1 20.7875 29.5735 14.661 30.9735C14.0515 31.1515 13.525 30.7125 13.35 30.1875C13.175 29.5735 13.6125 29.05 14.1375 28.875C20.7875 27.386 26.5625 28 31.1125 30.8C31.725 31.0625 31.811 31.761 31.5515 32.2875V32.2875ZM33.6515 27.475C33.2125 28.0875 32.425 28.35 31.811 27.9125C27.0875 25.025 19.9125 24.15 14.4 25.9C13.7015 26.075 12.9125 25.725 12.7375 25.025C12.5625 24.325 12.9125 23.536 13.6125 23.361C20 21.4375 27.875 22.4015 33.3 25.725C33.8265 25.989 34.0875 26.8625 33.6515 27.475V27.475ZM33.8265 22.575C28.225 19.25 18.8625 18.9 13.525 20.564C12.65 20.825 11.775 20.3 11.5125 19.5125C11.25 18.636 11.775 17.7625 12.5625 17.4985C18.775 15.661 29.0125 16.011 35.489 19.8625C36.275 20.3 36.5375 21.35 36.1 22.1375C35.664 22.7515 34.6125 23.011 33.8265 22.575V22.575Z" fill="white"/>
</svg>
