<svg width="48" height="48" viewBox="0 0 48 48" fill="none" xmlns="http://www.w3.org/2000/svg">
<rect width="48" height="48" rx="24" fill="#8F72DB"/>
<path d="M24 9C15.75 9 9 15.75 9 24C9 32.25 15.75 39 24 39C32.25 39 39 32.25 39 24C39 15.75 32.325 9 24 9ZM30.9012 30.675C30.6012 31.1238 30.0763 31.275 29.625 30.975C26.1 28.8 21.675 28.3487 16.4238 29.5487C15.9013 29.7012 15.45 29.325 15.3 28.875C15.15 28.3487 15.525 27.9 15.975 27.75C21.675 26.4737 26.625 27 30.525 29.4C31.05 29.625 31.1237 30.2238 30.9012 30.675V30.675ZM32.7013 26.55C32.325 27.075 31.65 27.3 31.1237 26.925C27.075 24.45 20.925 23.7 16.2 25.2C15.6013 25.35 14.925 25.05 14.775 24.45C14.625 23.85 14.925 23.1737 15.525 23.0237C21 21.375 27.75 22.2013 32.4 25.05C32.8512 25.2763 33.075 26.025 32.7013 26.55V26.55ZM32.8512 22.35C28.05 19.5 20.025 19.2 15.45 20.6262C14.7 20.85 13.95 20.4 13.725 19.725C13.5 18.9737 13.95 18.225 14.625 17.9987C19.95 16.4237 28.725 16.7237 34.2763 20.025C34.95 20.4 35.175 21.3 34.8 21.975C34.4262 22.5013 33.525 22.7238 32.8512 22.35V22.35Z" fill="white"/>
</svg>
