<svg width="48" height="48" viewBox="0 0 48 48" fill="none" xmlns="http://www.w3.org/2000/svg">
<rect width="48" height="48" rx="24" fill="#8F72DB"/>
<path d="M37.4763 13.0002C37.7065 12.9956 38.2153 13.0532 38.5468 13.3225C38.7671 13.5138 38.9075 13.7808 38.9404 14.0707C38.9773 14.2848 39.0233 14.7751 38.9865 15.1572C38.5721 19.5265 36.7719 30.125 35.8557 35.0168C35.469 37.0886 34.707 37.7815 33.9681 37.8482C32.3659 37.9979 31.1481 36.7893 29.5942 35.7718C27.1633 34.1765 25.789 33.1843 23.4294 31.6282C20.7015 29.8326 22.4695 28.8427 24.0233 27.2313C24.4308 26.8078 31.498 20.3782 31.6361 19.7958C31.6522 19.7221 31.6683 19.4505 31.5072 19.3078C31.3461 19.1651 31.1066 19.2134 30.934 19.2525C30.69 19.3078 26.8065 21.8768 19.2835 26.9528C18.1785 27.7124 17.1817 28.0808 16.2863 28.0578C15.301 28.0393 13.4041 27.503 11.993 27.0449C10.2619 26.4809 8.88756 26.1839 9.00727 25.2286C9.06942 24.7313 9.75542 24.2226 11.063 23.7023C19.1154 20.1941 24.4837 17.8805 27.1725 16.764C34.8428 13.5735 36.4381 13.0187 37.4763 13.0002Z" fill="white"/>
</svg>
