<svg width="48" height="48" viewBox="0 0 48 48" fill="none" xmlns="http://www.w3.org/2000/svg">
<rect width="48" height="48" rx="5" fill="#8F72DB"/>
<path d="M24.4183 7.00005C19.7912 7.02164 15.361 8.87491 12.0967 12.1545C8.83248 15.434 6.99995 19.8729 7 24.5C7 29.1413 8.84374 33.5925 12.1256 36.8744C15.4075 40.1563 19.8587 42 24.5 42C29.1413 42 33.5925 40.1563 36.8744 36.8744C40.1563 33.5925 42 29.1413 42 24.5C42 19.8588 40.1563 15.4076 36.8744 12.1257C33.5925 8.84379 29.1413 7.00005 24.5 7.00005C24.4728 6.99998 24.4456 6.99998 24.4183 7.00005V7.00005ZM31.6546 17.535C31.8004 17.5321 32.1227 17.5686 32.3327 17.7392C32.4723 17.8604 32.5612 18.0295 32.5821 18.2132C32.6054 18.3488 32.6346 18.6594 32.6113 18.9015C32.3488 21.6694 31.2083 28.3836 30.6279 31.4825C30.3829 32.795 29.9002 33.234 29.4321 33.2763C28.4171 33.3711 27.6456 32.6055 26.6613 31.9609C25.1213 30.9503 24.2506 30.3217 22.7558 29.3359C21.0277 28.1984 22.1477 27.5713 23.1321 26.5505C23.3902 26.2821 27.8673 22.209 27.9548 21.84C27.965 21.7934 27.9752 21.6213 27.8731 21.5309C27.771 21.4405 27.6194 21.4711 27.51 21.4959C27.3554 21.5309 24.8952 23.1584 20.1294 26.374C19.4294 26.8553 18.7979 27.0886 18.2306 27.074C17.6065 27.0623 16.4048 26.7225 15.5108 26.4323C14.4142 26.075 13.5435 25.8869 13.6194 25.2817C13.6588 24.9667 14.0933 24.6444 14.9217 24.3148C20.0229 22.0923 23.4238 20.6267 25.1271 19.9194C29.9863 17.8982 30.9969 17.5467 31.6546 17.535V17.535Z" fill="white"/>
</svg>
