<svg width="48" height="48" viewBox="0 0 48 48" fill="none" xmlns="http://www.w3.org/2000/svg">
<rect width="48" height="48" rx="24" fill="#8F72DB"/>
<path d="M30.7687 26.9775C30.3975 26.7913 28.5712 25.8938 28.2312 25.7688C27.89 25.645 27.6425 25.5838 27.3937 25.9563C27.1475 26.3275 26.435 27.1638 26.2187 27.4113C26.0025 27.66 25.785 27.69 25.4137 27.505C25.0425 27.3175 23.845 26.9263 22.4262 25.6613C21.3225 24.6763 20.5762 23.46 20.36 23.0875C20.1437 22.7163 20.3375 22.515 20.5225 22.33C20.69 22.1638 20.895 21.8963 21.08 21.68C21.2662 21.4625 21.3275 21.3075 21.4525 21.0588C21.5762 20.8113 21.515 20.595 21.4212 20.4088C21.3275 20.2225 20.585 18.3938 20.2762 17.65C19.9737 16.9263 19.6675 17.025 19.44 17.0125C19.2237 17.0025 18.9762 17 18.7275 17C18.48 17 18.0775 17.0925 17.7375 17.465C17.3975 17.8363 16.4375 18.735 16.4375 20.5638C16.4375 22.3913 17.7687 24.1575 17.9537 24.4063C18.14 24.6538 20.5737 28.4063 24.3 30.015C25.1862 30.3975 25.8775 30.6263 26.4175 30.7963C27.3075 31.08 28.1175 31.04 28.7562 30.9438C29.47 30.8375 30.9537 30.045 31.2637 29.1775C31.5737 28.31 31.5737 27.5663 31.48 27.4113C31.3875 27.2563 31.14 27.1638 30.7675 26.9775H30.7687ZM23.9912 36.2313H23.9862C21.7734 36.2314 19.6013 35.6365 17.6975 34.5088L17.2462 34.2413L12.57 35.4688L13.8175 30.9088L13.5237 30.4413C12.2868 28.4716 11.6324 26.1921 11.6362 23.8663C11.6375 17.0538 17.1812 11.5113 23.9962 11.5113C27.2962 11.5113 30.3987 12.7988 32.7312 15.1338C33.8821 16.2796 34.7942 17.6422 35.415 19.1428C36.0357 20.6435 36.3526 22.2523 36.3475 23.8763C36.3437 30.6888 30.8012 36.2313 23.9912 36.2313ZM34.5075 13.36C33.1302 11.9737 31.4915 10.8745 29.6863 10.126C27.8811 9.37763 25.9454 8.9949 23.9912 9.00005C15.7975 9.00005 9.12875 15.6688 9.125 23.865C9.125 26.485 9.80875 29.0425 11.11 31.2963L9 39L16.8812 36.9325C19.0607 38.1199 21.503 38.7422 23.985 38.7425H23.9912C32.1837 38.7425 38.8537 32.0738 38.8575 23.8763C38.8635 21.9229 38.4822 19.9877 37.7355 18.1826C36.9888 16.3775 35.8917 14.7384 34.5075 13.36Z" fill="white"/>
</svg>
