<svg width="48" height="48" viewBox="0 0 48 48" fill="none" xmlns="http://www.w3.org/2000/svg">
<rect width="48" height="48" rx="5" fill="#8F72DB"/>
<path d="M32.3969 27.9738C31.9637 27.7565 29.8331 26.7094 29.4365 26.5636C29.0383 26.4192 28.7496 26.3478 28.4594 26.7823C28.1721 27.2155 27.3408 28.1911 27.0885 28.4799C26.8362 28.7701 26.5825 28.8051 26.1494 28.5892C25.7162 28.3705 24.3192 27.914 22.664 26.4382C21.3762 25.289 20.5056 23.8701 20.2533 23.4355C20.001 23.0024 20.2271 22.7676 20.4429 22.5517C20.6383 22.3578 20.8775 22.0457 21.0933 21.7934C21.3106 21.5396 21.3821 21.3588 21.5279 21.0686C21.6723 20.7799 21.6008 20.5276 21.4915 20.3103C21.3821 20.093 20.5158 17.9594 20.1556 17.0917C19.8027 16.2474 19.4454 16.3626 19.18 16.348C18.9277 16.3363 18.639 16.3334 18.3487 16.3334C18.06 16.3334 17.5904 16.4413 17.1937 16.8759C16.7971 17.309 15.6771 18.3576 15.6771 20.4911C15.6771 22.6232 17.2302 24.6838 17.446 24.974C17.6633 25.2628 20.5027 29.6407 24.85 31.5176C25.884 31.9638 26.6904 32.2307 27.3204 32.429C28.3587 32.7601 29.3037 32.7134 30.049 32.6011C30.8817 32.4771 32.6127 31.5526 32.9744 30.5405C33.336 29.5284 33.336 28.6607 33.2267 28.4799C33.1188 28.299 32.83 28.1911 32.3954 27.9738H32.3969ZM24.4898 38.7698H24.484C21.9024 38.7701 19.3682 38.076 17.1471 36.7603L16.6206 36.4482L11.165 37.8803L12.6204 32.5603L12.2777 32.0148C10.8346 29.7169 10.0712 27.0575 10.0756 24.344C10.0771 16.3961 16.5448 9.92985 24.4956 9.92985C28.3456 9.92985 31.9652 11.4319 34.6865 14.1561C36.0291 15.4928 37.0933 17.0826 37.8175 18.8333C38.5417 20.5841 38.9115 22.4611 38.9054 24.3557C38.901 32.3036 32.4348 38.7698 24.4898 38.7698V38.7698ZM36.7587 12.0867C35.1519 10.4693 33.2401 9.18688 31.1341 8.31373C29.028 7.44057 26.7697 6.99406 24.4898 7.00006C14.9304 7.00006 7.15021 14.7803 7.14583 24.3426C7.14583 27.3992 7.94354 30.383 9.46167 33.0123L7 42.0001L16.1948 39.588C18.7375 40.9733 21.5869 41.6993 24.4825 41.6996H24.4898C34.0477 41.6996 41.8294 33.9194 41.8338 24.3557C41.8408 22.0767 41.3959 19.819 40.5248 17.713C39.6537 15.6071 38.3737 13.6948 36.7587 12.0867V12.0867Z" fill="white"/>
</svg>
